<svg xmlns="http://www.w3.org/2000/svg" width="16" height="16" fill="currentColor" viewBox="0 0 16 16">
  <path fill-rule="evenodd" d="M.5 6a.5.5 0 0 0-.488.608l1.652 7.434A2.5 2.5 0 0 0 4.104 16h5.792a2.5 2.5 0 0 0 2.44-1.958l.131-.59a3 3 0 0 0 1.3-5.854l.221-.99A.5.5 0 0 0 13.5 6zM13 12.5a2 2 0 0 1-.316-.025l.867-3.898A2.001 2.001 0 0 1 13 12.5"/>
  <path d="m4.4.8-.003.004-.014.019a4 4 0 0 0-.204.31 2 2 0 0 0-.141.267c-.026.06-.034.092-.037.103v.004a.6.6 0 0 0 .091.248c.075.133.178.272.308.445l.01.012c.118.158.26.347.37.543.112.2.22.455.22.745 0 .188-.065.368-.119.494a3 3 0 0 1-.202.388 5 5 0 0 1-.253.382l-.018.025-.005.008-.002.002A.5.5 0 0 1 3.6 4.2l.003-.004.014-.019a4 4 0 0 0 .204-.31 2 2 0 0 0 .141-.267c.026-.06.034-.092.037-.103a.6.6 0 0 0-.091-.248 1.4 1.4 0 0 0-.308-.445l-.01-.012C3.431 2.91 3.29 2.721 3.18 2.535c-.112-.2-.22-.455-.22-.745 0-.188.065-.368.119-.494A3 3 0 0 1 3.28.908 5 5 0 0 1 3.533.526l.018-.025.005-.008.002-.002A.5.5 0 0 1 4.4.8M5.5.8a.5.5 0 0 1 .823-.379l.003.004.014.019a4 4 0 0 1 .204.31 2 2 0 0 1 .141.267c.026.06.034.092.037.103a.6.6 0 0 1-.091.248 1.4 1.4 0 0 1-.308.445l-.01.012C6.095 2.089 5.954 2.278 5.844 2.464c-.112.2-.22.455-.22.745 0 .188.065.368.119.494.048.118.109.253.202.388a5 5 0 0 0 .253.382l.018.025.005.008.002.002a.5.5 0 0 1-.823.379l-.003-.004-.014-.019a4 4 0 0 1-.204-.31 2 2 0 0 1-.141-.267c-.026-.06-.034-.092-.037-.103a.6.6 0 0 1 .091-.248c.075-.133.178-.272.308-.445l.01-.012C5.569 2.911 5.71 2.722 5.82 2.536c.112-.2.22-.455.22-.745 0-.188-.065-.368-.119-.494A3 3 0 0 0 5.72.909 5 5 0 0 0 5.467.527l-.018-.025L5.444.494l-.002-.002A.5.5 0 0 1 5.5.8m2.5 0a.5.5 0 0 1 .823-.379l.003.004.014.019a4 4 0 0 1 .204.31 2 2 0 0 1 .141.267c.026.06.034.092.037.103a.6.6 0 0 1-.091.248 1.4 1.4 0 0 1-.308.445l-.01.012C8.595 2.089 8.454 2.278 8.344 2.464c-.112.2-.22.455-.22.745 0 .188.065.368.119.494.048.118.109.253.202.388a5 5 0 0 0 .253.382l.018.025.005.008.002.002a.5.5 0 0 1-.823.379l-.003-.004-.014-.019a4 4 0 0 1-.204-.31 2 2 0 0 1-.141-.267c-.026-.06-.034-.092-.037-.103a.6.6 0 0 1 .091-.248c.075-.133.178-.272.308-.445l.01-.012C8.069 2.911 8.21 2.722 8.32 2.536c.112-.2.22-.455.22-.745 0-.188-.065-.368-.119-.494A3 3 0 0 0 8.22.909 5 5 0 0 0 7.967.527l-.018-.025L7.944.494l-.002-.002A.5.5 0 0 1 8 .8"/>
</svg>