<svg xmlns="http://www.w3.org/2000/svg" viewBox="0 0 512 512">
  <path fill="#FFFC00" d="M496.926,366.6c-3.373-9.176-9.8-14.086-17.112-18.153-1.376-.806-2.641-1.451-3.72-2.109-4.679-2.834-7.442-4.543-8.669-6.394a10.921,10.921,0,0,1-1.492-2.507,7.147,7.147,0,0,1,.383-5.743c1.094-2.206,4.8-4.136,9.882-5.222,2.235-.48,4.6-.835,7.109-1.063,1.906-.173,3.7-.338,5.738-.338a42.006,42.006,0,0,1,5.2.312c3.333.413,6.987,1.513,7.712,3.781a3.121,3.121,0,0,1,.365,1.5v.152a2.907,2.907,0,0,1-.365,1.4c-1.384,2.827-9.673,5.473-13.993,6.711-1.874.536-1.963.694-1.963,1.093,0,.73,1.507,2.942,9.577,8.848,6.174,4.533,12.8,7.695,17.776,8.846a6.192,6.192,0,0,1,5.09,5.243c.365,3.5-5.841,8.371-22.6,11.232-1.131.193-2.1.511-3.242.847-.167.048-.343.1-.513.144-.986.274-2,.557-3.086.776a10.845,10.845,0,0,0-2.235.776,2.226,2.226,0,0,0-1.11,1.344c-.144.557.173,1.137.5,1.656a52.338,52.338,0,0,0,1.452,1.972c.365.462.73.922,1.077,1.4,2.206,3.1,4.6,5.813,6.94,8.464a70.821,70.821,0,0,0,7.647,7.647c2.975,2.6,5.576,4.022,7.8,4.233a2.1,2.1,0,0,0,1.656-.5c3.5-2.884,14.021-4.806,19.208-4.806,5.07,0,9.478,1.872,13.019,3.5,7.339,3.358,13.748,7.647,20,13.039a24.308,24.308,0,0,1,2.083,1.922c.6.605,1.163,1.173,1.644,1.644.75.846,1.384,1.549,1.963,2.206.967,1.093,1.788,2.032,2.495,2.942a14.526,14.526,0,0,1,2.083,3.242A4.387,4.387,0,0,1,496.926,366.6Zm-350.6,45.044c-2.11-3.5-4.352-9.117-5.316-12.89a22.1,22.1,0,0,1-.405-12.062,65.371,65.371,0,0,1,5.957-15.857c2.495-4.617,5.791-8.67,9.433-11.612.75-.605,1.548-1.211,2.4-1.742a56.474,56.474,0,0,1,25.954-9.884h.537a31.3,31.3,0,0,0,4.086.173c1.163-.1,2.4-.21,3.625-.376.4-.057,1.316-.212,1.53-.241a.828.828,0,0,1,.451.135c.384.347.365.992.346,1.618,0,.058,0,.115,0,.173-.173,6.76-7.8,13.569-15.305,13.569a18.224,18.224,0,0,1-2.5-.173c-.7-.115-1.39-.231-2.065-.327-1.28-.2-2.233-.327-3.174-.327a7.343,7.343,0,0,0-3.328.769c-3.328,1.462-5.258,4.658-5.258,8.759a18.064,18.064,0,0,0,3.954,10.52l.307.384a99.433,99.433,0,0,0,23.956,23.379c4.544,3.1,10.469,5.059,17.255,5.818a.511.511,0,0,1,.354.19,41.376,41.376,0,0,1,7.549,9.755,5.712,5.712,0,0,1,.78,2.907c0,2.906-4.188,6.934-7.166,9.13-1.184.874-2.389,1.768-3.615,2.661-6.022,4.442-13.035,9.595-22.847,9.595-3.444,0-6.76-.759-9.769-2.272-.644-.316-1.28-.644-1.933-.99-4.1-2.146-8.253-4.323-13.621-4.323a19.884,19.884,0,0,0-5.279.692,38.355,38.355,0,0,0-6.182,2.146c-1.26.528-2.511,1.056-3.789,1.5-2.456.87-5.055,1.317-8.005,1.317-10.3,0-18.706-5.28-22.361-8.4-.173-.154-.345-.309-.518-.461C148.316,413.868,146.219,412.015,146.329,411.645ZM89.579,245.012c0,.116-.019,1.469-.019,2.06,0,1.433.058,14.885.058,15.029a144.937,144.937,0,0,0,2.267,25.531,158.866,158.866,0,0,0,8.156,30.448c.193.528.383,1.057.576,1.585,5.141,14.2,11.783,26.1,19.776,35.334a104.236,104.236,0,0,0,32.13,23.914,1.425,1.425,0,0,0,.673.384c1.125.115,2.208.652,1.19,2.466-.673,1.200-1.231,2.34-1.771,3.435-.153.312-.307.624-.459.924-1.6,3.2-4.445,8.876-8.683,9a1.921,1.921,0,0,1-.385,0,9.9,9.9,0,0,1-5.707-2.129A86.878,86.878,0,0,1,122.036,379.6a78.814,78.814,0,0,1-6.087-5.423c-23.1-22.617-31.987-50.038-35.044-67.714a188.718,188.718,0,0,1-2.364-22.9c-.154-3.491-.289-6.657-.481-9.786-.638-10.347-3.136-10.923-4.484-11.037a13.828,13.828,0,0,0-1.674,0c-2.248.163-4.777.347-7.6.347a39.8,39.8,0,0,1-14.723-2.386c-8.294-3.212-12.878-9.382-12.878-17.306,0-5.085,2.7-9.69,7.9-13.4a25.038,25.038,0,0,1,15.969-5.27c.308,0,.615,0,.923.019,4.969.21,9.691.634,14.127,1.058.825.077,1.638.154,2.452.224,4.355.385,9.461.6,16.109.674h.616c3.414,0,7.051-.1,10.91-.308,9.478-.48,18.312-1.894,25.052-4,.693-.212,1.4-.423,2.1-.647,4.738-1.489,9.63-3.021,15.282-3.021,7.34,0,14.657,2.225,22.6,6.84a20.8,20.8,0,0,0,9.535,2.558,19.521,19.521,0,0,0,9.9-2.673,47.553,47.553,0,0,1,19.679-5.7,24.861,24.861,0,0,1,8.523,1.489,27.856,27.856,0,0,1,6.2,3.252,6.266,6.266,0,0,1,2.626,4.8,6.889,6.889,0,0,1-2.14,5.3,8.371,8.371,0,0,1-5.527,1.835,9.427,9.427,0,0,1-1.279-.087,7.891,7.891,0,0,0-1.068-.1,4.475,4.475,0,0,0-2.9,1.163c-.636.616-1.553,1.78-.521,3.771,1.366,2.631,7.492,10.748,12.564,16.907,2.957,3.6,5.759,7.015,7.08,8.89,5.644,7.9,11.079,17.22,15.263,26.146.808,1.722,1.482,3.3,2.055,4.617a32.813,32.813,0,0,0,4.834,8.545c3.425,4.251,6.949,6.354,10.489,6.258,2.3-.067,4.985-.684,6.433-1.606a4.952,4.952,0,0,0,2.267-3.1c.461-1.8.9-4.944,1.335-8.023.63-4.461,1.279-9.07,2.285-10.989a7.817,7.817,0,0,1,1.934-2.558c2.495-2.276,5.27-2.869,9.25-3.693a44.171,44.171,0,0,1,8.333-1.087,3.423,3.423,0,0,1,3.06,1.654c1.587,2.551,3.982,8.465,3.982,13.3,0,3.464-1.015,8.4-3.926,11.708-1.259,1.415-4.886,4.251-10.082,4.9a20.378,20.378,0,0,1-11.967-2.113,134.81,134.81,0,0,1-5.1,17.513c-.846,2.308-1.711,4.617-2.688,6.9-.48,1.125-.972,2.231-1.472,3.318-4.369,9.5-9.883,16.8-16.337,21.711a43.345,43.345,0,0,1-23.313,8.5,28.812,28.812,0,0,1-9.417-1.548,81.74,81.74,0,0,1-9.268-3.868c-2.19-1.039-4.451-2.113-6.768-3.087a33.586,33.586,0,0,0-11.487-2.321c-5.266,0-10.447,1.788-15.474,5.328a57.313,57.313,0,0,0-6.663,5.623c-8.734,8.618-16.009,19.3-21.647,31.79-2.229,4.934-3.926,9.6-5.044,13.931-.471,1.836-.923,3.693-1.375,5.55-1.163,4.79-2.258,9.309-3.887,13.234a28.1,28.1,0,0,1-2.179,4.331,9.275,9.275,0,0,1-4.428,3.5,6.86,6.86,0,0,1-2.453.471,3.884,3.884,0,0,1-2.287-.721c-3.1-2.146-4.448-9.194-3.868-20.428.124-2.4.308-4.762.634-7.973.211-2.146.528-4.369.884-6.73.557-3.712,1.222-7.657,1.731-11.9.048-.395.087-.8.125-1.2.539-5.5,1.01-11.582-1.694-17.419-2.3-4.944-6.23-8.118-11.776-9.519a25.446,25.446,0,0,0-6.759-.924c-11.022,0-22.34,5.724-28.551,10.791a40.9,40.9,0,0,0-5.835,6.151c-3.31,4.1-6.221,8.439-8.948,12.528-.866,1.3-1.73,2.6-2.593,3.877-4.233,6.221-10.251,9.557-17.891,9.922-.327.019-.644.029-.959.029-7.657,0-15.839-3.522-22.349-9.654-5.306-4.98-9.884-11.641-14.308-20.88-3.627-7.57-6.252-15.27-8.773-22.677-1.058-3.107-2.1-6.22-3.175-9.246-1.384-3.893-2.852-7.731-4.28-11.478-1.865-4.875-3.79-9.923-5.5-15.012-.241-.722-.5-1.462-.77-2.225-1.231-3.483-2.624-7.434-1.6-10.657a9.822,9.822,0,0,1,5.889-6.033c4.485-1.645,8.8-2.019,13.681-2.431,2.093-.173,4.256-.347,6.513-.634.432-.057.864-.115,1.28-.173a23.571,23.571,0,0,0,7.7-2.3c.548-.269,1.068-.53,1.558-.78a17.309,17.309,0,0,0,4.059-2.9,4.569,4.569,0,0,0,1.595-3.242c0-1.4-.577-2.466-1.183-3.684-.327-.653-.663-1.328-.99-2.1a38.3,38.3,0,0,1-1.4-4.215c-.241-.836-.48-1.644-.742-2.421A8.78,8.78,0,0,0,117.957,240a6.869,6.869,0,0,0-2.6-.525c-3.954,0-8.59,3.176-11.621,7.975a48.728,48.728,0,0,0-4.8,11.276,76.241,76.241,0,0,0-2.142,8.571c-.289,1.45-.575,2.89-.875,4.271-1.894,8.6-5.759,12.932-12.16,13.545a17.159,17.159,0,0,1-1.819.1c-.105,0-.21,0-.317,0-4.348-.106-7.666-3.138-9.672-8.813-1.559-4.409-2.14-9.836-2.7-15.039Z"/>
</svg>
