<svg width="593" height="207" viewBox="0 0 593 207" fill="none" xmlns="http://www.w3.org/2000/svg">
<path d="M133.788 18.5576C133.788 11.6541 139.385 6.05762 146.288 6.05762C153.192 6.05762 158.788 11.6541 158.788 18.5576V144.476C158.788 151.379 153.192 156.976 146.288 156.976C139.385 156.976 133.788 151.379 133.788 144.476V18.5576Z" fill="url(#paint0_linear_5920_3)"/>
<path d="M5.17761 18.5576C5.17761 11.6541 10.7741 6.05762 17.6776 6.05762C24.5812 6.05762 30.1776 11.6541 30.1776 18.5576V193.558C30.1776 200.461 24.5812 206.058 17.6776 206.058C10.7741 206.058 5.17761 200.461 5.17761 193.558V18.5576Z" fill="url(#paint1_linear_5920_3)"/>
<path d="M8.83883 27.3965C3.95728 22.5149 3.95728 14.6003 8.83883 9.71878C13.7204 4.83723 21.635 4.83723 26.5165 9.71878L152.975 136.177C157.856 141.059 157.856 148.973 152.975 153.855C148.093 158.736 140.179 158.736 135.297 153.855L8.83883 27.3965Z" fill="url(#paint2_linear_5920_3)"/>
<path d="M260.868 56.0576C288.482 56.0577 310.867 78.4436 310.868 106.058H285.883C285.883 92.2505 274.69 81.0576 260.883 81.0576C247.076 81.0576 235.883 92.2505 235.883 106.058C235.883 119.86 247.068 131.048 260.868 131.057V156.058C233.253 156.058 210.868 133.672 210.868 106.058C210.868 78.4436 233.253 56.0576 260.868 56.0576Z" fill="url(#paint3_linear_5920_3)"/>
<path d="M223.383 118.558C216.48 118.558 210.883 112.961 210.883 106.058C210.883 99.154 216.48 93.5576 223.383 93.5576H298.383C305.287 93.5576 310.883 99.154 310.883 106.058C310.883 112.961 305.287 118.558 298.383 118.558H223.383Z" fill="url(#paint4_linear_5920_3)"/>
<path d="M359.938 67.0411C359.938 60.1376 365.534 54.5411 372.438 54.5411C379.341 54.5411 384.938 60.1376 384.938 67.0411V142.041C384.938 148.945 379.341 154.541 372.438 154.541C365.534 154.541 359.938 148.945 359.938 142.041V67.0411Z" fill="url(#paint5_linear_5920_3)"/>
<path d="M530.275 17.6397C530.275 10.7362 535.871 5.13974 542.775 5.13974C549.679 5.13974 555.275 10.7362 555.275 17.6397V143.311C555.275 150.214 549.679 155.811 542.775 155.811C535.871 155.811 530.275 150.214 530.275 143.311V17.6397Z" fill="url(#paint6_linear_5920_3)"/>
<path d="M505.275 81.0576C498.371 81.0576 492.775 75.4612 492.775 68.5576C492.775 61.6541 498.371 56.0576 505.275 56.0576H580.275C587.179 56.0576 592.775 61.6541 592.775 68.5576C592.775 75.4612 587.179 81.0576 580.275 81.0576H505.275Z" fill="url(#paint7_linear_5920_3)"/>
<path d="M260 156.058V131.058H279.908C286.811 131.058 292.408 136.654 292.408 143.558C292.408 150.461 286.811 156.058 279.908 156.058H260Z" fill="url(#paint8_linear_5920_3)"/>
<path d="M388.099 115.558C383.217 110.676 383.217 102.762 388.099 97.88C392.98 92.9984 400.895 92.9984 405.776 97.88L441.132 133.235C446.013 138.117 446.013 146.031 441.132 150.913C436.25 155.795 428.336 155.795 423.454 150.913L388.099 115.558Z" fill="url(#paint9_linear_5920_3)"/>
<path d="M405.776 111.235C400.895 116.117 392.98 116.117 388.099 111.235C383.217 106.354 383.217 98.4392 388.099 93.5576L423.454 58.2023C428.336 53.3207 436.25 53.3207 441.132 58.2023C446.013 63.0838 446.013 70.9984 441.132 75.88L405.776 111.235Z" fill="url(#paint10_linear_5920_3)"/>
<path d="M223.368 30.1397C216.464 30.1397 210.868 24.5433 210.868 17.6397C210.868 10.7362 216.464 5.13974 223.368 5.13974L542.775 5.13974C549.679 5.13974 555.275 10.7362 555.275 17.6397C555.275 24.5433 549.679 30.1397 542.775 30.1397H223.368Z" fill="url(#paint11_linear_5920_3)"/>
<path d="M16.8799 206.26C10.4169 206.26 5.17761 201.021 5.17761 194.558C5.17761 188.095 10.4169 182.855 16.8799 182.855H543.573C550.036 182.855 555.275 188.095 555.275 194.558C555.275 201.021 550.036 206.26 543.573 206.26H16.8799Z" fill="url(#paint12_linear_5920_3)"/>
<defs>
<linearGradient id="paint0_linear_5920_3" x1="5.17761" y1="105.7" x2="592.775" y2="105.7" gradientUnits="userSpaceOnUse">
<stop stop-color="#E7FED2"/>
<stop offset="1" stop-color="#71E454"/>
</linearGradient>
<linearGradient id="paint1_linear_5920_3" x1="5.17761" y1="105.7" x2="592.775" y2="105.7" gradientUnits="userSpaceOnUse">
<stop stop-color="#E7FED2"/>
<stop offset="1" stop-color="#71E454"/>
</linearGradient>
<linearGradient id="paint2_linear_5920_3" x1="5.17761" y1="105.7" x2="592.775" y2="105.7" gradientUnits="userSpaceOnUse">
<stop stop-color="#E7FED2"/>
<stop offset="1" stop-color="#71E454"/>
</linearGradient>
<linearGradient id="paint3_linear_5920_3" x1="5.17761" y1="105.7" x2="592.775" y2="105.7" gradientUnits="userSpaceOnUse">
<stop stop-color="#E7FED2"/>
<stop offset="1" stop-color="#71E454"/>
</linearGradient>
<linearGradient id="paint4_linear_5920_3" x1="5.17761" y1="105.7" x2="592.775" y2="105.7" gradientUnits="userSpaceOnUse">
<stop stop-color="#E7FED2"/>
<stop offset="1" stop-color="#71E454"/>
</linearGradient>
<linearGradient id="paint5_linear_5920_3" x1="5.17761" y1="105.7" x2="592.775" y2="105.7" gradientUnits="userSpaceOnUse">
<stop stop-color="#E7FED2"/>
<stop offset="1" stop-color="#71E454"/>
</linearGradient>
<linearGradient id="paint6_linear_5920_3" x1="5.17761" y1="105.7" x2="592.775" y2="105.7" gradientUnits="userSpaceOnUse">
<stop stop-color="#E7FED2"/>
<stop offset="1" stop-color="#71E454"/>
</linearGradient>
<linearGradient id="paint7_linear_5920_3" x1="5.17761" y1="105.7" x2="592.775" y2="105.7" gradientUnits="userSpaceOnUse">
<stop stop-color="#E7FED2"/>
<stop offset="1" stop-color="#71E454"/>
</linearGradient>
<linearGradient id="paint8_linear_5920_3" x1="5.17761" y1="105.7" x2="592.775" y2="105.7" gradientUnits="userSpaceOnUse">
<stop stop-color="#E7FED2"/>
<stop offset="1" stop-color="#71E454"/>
</linearGradient>
<linearGradient id="paint9_linear_5920_3" x1="5.17761" y1="105.7" x2="592.775" y2="105.7" gradientUnits="userSpaceOnUse">
<stop stop-color="#E7FED2"/>
<stop offset="1" stop-color="#71E454"/>
</linearGradient>
<linearGradient id="paint10_linear_5920_3" x1="5.17761" y1="105.7" x2="592.775" y2="105.7" gradientUnits="userSpaceOnUse">
<stop stop-color="#E7FED2"/>
<stop offset="1" stop-color="#71E454"/>
</linearGradient>
<linearGradient id="paint11_linear_5920_3" x1="5.17761" y1="105.7" x2="592.775" y2="105.7" gradientUnits="userSpaceOnUse">
<stop stop-color="#E7FED2"/>
<stop offset="1" stop-color="#71E454"/>
</linearGradient>
<linearGradient id="paint12_linear_5920_3" x1="5.17761" y1="105.7" x2="592.775" y2="105.7" gradientUnits="userSpaceOnUse">
<stop stop-color="#E7FED2"/>
<stop offset="1" stop-color="#71E454"/>
</linearGradient>
</defs>
</svg>
