<svg width="593" height="206" viewBox="0 0 593 206" fill="none" xmlns="http://www.w3.org/2000/svg">
<rect x="133.788" y="5.6777" width="25" height="150.918" rx="12.5" fill="white"/>
<rect x="5.17761" y="5.6777" width="25" height="200" rx="12.5" fill="white"/>
<rect y="18.1777" width="25" height="203.839" rx="12.5" transform="rotate(-45 0 18.1777)" fill="white"/>
<path d="M260.868 55.6777C288.482 55.6778 310.867 78.0637 310.868 105.678H285.883C285.883 91.8706 274.69 80.6777 260.883 80.6777C247.076 80.6777 235.883 91.8706 235.883 105.678C235.883 119.48 247.068 130.668 260.868 130.677V155.678C233.253 155.678 210.868 133.292 210.868 105.678C210.868 78.0637 233.253 55.6777 260.868 55.6777Z" fill="white"/>
<rect x="210.883" y="118.178" width="25" height="100" rx="12.5" transform="rotate(-90 210.883 118.178)" fill="white"/>
<rect x="359.938" y="54.1612" width="25" height="100" rx="12.5" fill="white"/>
<rect x="530.275" y="4.75983" width="25" height="150.671" rx="12.5" fill="white"/>
<rect x="492.775" y="80.6777" width="25" height="100" rx="12.5" transform="rotate(-90 492.775 80.6777)" fill="white"/>
<path d="M260.883 155.678V130.678H280.791C287.694 130.678 293.291 136.274 293.291 143.178V143.178C293.291 150.081 287.694 155.678 280.791 155.678H260.883Z" fill="white"/>
<rect x="379.26" y="106.339" width="25" height="75" rx="12.5" transform="rotate(-45 379.26 106.339)" fill="white"/>
<rect x="396.938" y="119.694" width="25" height="75" rx="12.5" transform="rotate(-135 396.938 119.694)" fill="white"/>
<rect x="210.868" y="29.7598" width="25" height="344.407" rx="12.5" transform="rotate(-90 210.868 29.7598)" fill="white"/>
<rect x="5.17761" y="205.88" width="23.4045" height="550.097" rx="11.7023" transform="rotate(-90 5.17761 205.88)" fill="white"/>
</svg>
